<svg width="350" height="335" viewBox="0 0 350 335" fill="none" xmlns="http://www.w3.org/2000/svg">
<path id="star" class="starIcon" d="M155.164 15.0651C161.701 -3.74166 188.299 -3.74162 194.836 15.0651L223.103 96.3855C225.987 104.682 233.729 110.307 242.511 110.486L328.586 112.24C348.492 112.646 356.711 137.941 340.845 149.97L272.24 201.983C265.241 207.29 262.283 216.391 264.827 224.799L289.757 307.203C295.523 326.26 274.005 341.894 257.662 330.521L186.995 281.347C179.785 276.33 170.215 276.33 163.005 281.347L92.3379 330.521C75.9948 341.894 54.4772 326.26 60.2428 307.203L85.1733 224.799C87.7168 216.391 84.7594 207.29 77.7601 201.983L9.15485 149.97C-6.71133 137.941 1.50765 112.646 21.4141 112.24L107.489 110.486C116.271 110.307 124.013 104.682 126.897 96.3855L155.164 15.0651Z" fill="#777777"/>
</svg>
